<svg width="40" height="40" viewBox="0 0 40 40" fill="none" xmlns="http://www.w3.org/2000/svg">
<path d="M5 35.0001V28.3334C5 27.0149 5.39099 25.7259 6.12354 24.6296C6.85608 23.5333 7.89727 22.6788 9.11544 22.1742C10.3336 21.6696 11.6741 21.5376 12.9673 21.7948C14.2605 22.0521 15.4484 22.687 16.3807 23.6194C17.3131 24.5517 17.948 25.7396 18.2052 27.0328C18.4625 28.326 18.3304 29.6665 17.8259 30.8846C17.3213 32.1028 16.4668 33.144 15.3705 33.8766C14.2741 34.6091 12.9852 35.0001 11.6667 35.0001H5Z" stroke="#DFCDC0" stroke-width="3" stroke-linecap="round" stroke-linejoin="round"/>
<path d="M35 5C30.243 5.65067 25.75 7.57357 21.9951 10.5657C18.2402 13.5579 15.3628 17.5083 13.6667 22" stroke="#DFCDC0" stroke-width="3" stroke-linecap="round" stroke-linejoin="round"/>
<path d="M35 5C34.3493 9.75697 32.4264 14.25 29.4343 18.0049C26.4421 21.7598 22.4917 24.6372 18 26.3333" stroke="#DFCDC0" stroke-width="3" stroke-linecap="round" stroke-linejoin="round"/>
<path d="M17.6667 15C20.9053 16.4948 23.5052 19.0947 25 22.3333" stroke="#DFCDC0" stroke-width="3" stroke-linecap="round" stroke-linejoin="round"/>
</svg>
