<svg width="40" height="40" viewBox="0 0 40 40" fill="none" xmlns="http://www.w3.org/2000/svg">
<path d="M8.33333 5H10C10.442 5 10.8659 5.17559 11.1785 5.48816C11.4911 5.80072 11.6667 6.22464 11.6667 6.66667V10H16.6667V6.66667C16.6667 6.22464 16.8423 5.80072 17.1548 5.48816C17.4674 5.17559 17.8913 5 18.3333 5H21.6667C22.1087 5 22.5326 5.17559 22.8452 5.48816C23.1577 5.80072 23.3333 6.22464 23.3333 6.66667V10H28.3333V6.66667C28.3333 6.22464 28.5089 5.80072 28.8215 5.48816C29.134 5.17559 29.558 5 30 5H31.6667C32.1087 5 32.5326 5.17559 32.8452 5.48816C33.1577 5.80072 33.3333 6.22464 33.3333 6.66667V13.99C33.3335 14.6484 33.1386 15.2922 32.7733 15.84L30.56 19.16C30.1947 19.7078 29.9999 20.3516 30 21.01V33.3333C30 33.7754 29.8244 34.1993 29.5118 34.5118C29.1993 34.8244 28.7754 35 28.3333 35H11.6667C11.2246 35 10.8007 34.8244 10.4882 34.5118C10.1756 34.1993 10 33.7754 10 33.3333V21.01C10.0001 20.3516 9.80529 19.7078 9.44 19.16L7.22667 15.84C6.86138 15.2922 6.66652 14.6484 6.66667 13.99V6.66667C6.66667 6.22464 6.84226 5.80072 7.15482 5.48816C7.46738 5.17559 7.89131 5 8.33333 5Z" stroke="#DFCDC0" stroke-width="3" stroke-linecap="round" stroke-linejoin="round"/>
<path d="M16.6667 34.9999V26.6666C16.6667 25.7825 17.0179 24.9347 17.643 24.3096C18.2681 23.6844 19.1159 23.3333 20 23.3333C20.8841 23.3333 21.7319 23.6844 22.357 24.3096C22.9821 24.9347 23.3333 25.7825 23.3333 26.6666V34.9999" stroke="#DFCDC0" stroke-width="3" stroke-linecap="round" stroke-linejoin="round"/>
</svg>
