<svg width="40" height="40" viewBox="0 0 40 40" fill="none" xmlns="http://www.w3.org/2000/svg">
<path d="M5 31.6666C5 32.5506 5.35119 33.3985 5.97631 34.0236C6.60143 34.6487 7.44928 34.9999 8.33333 34.9999C9.21739 34.9999 10.0652 34.6487 10.6904 34.0236C11.3155 33.3985 11.6667 32.5506 11.6667 31.6666C11.6667 30.7825 11.3155 29.9347 10.6904 29.3096C10.0652 28.6844 9.21739 28.3333 8.33333 28.3333C7.44928 28.3333 6.60143 28.6844 5.97631 29.3096C5.35119 29.9347 5 30.7825 5 31.6666Z" stroke="#DFCDC0" stroke-width="3" stroke-linecap="round" stroke-linejoin="round"/>
<path d="M31.6667 11.6667C32.5507 11.6667 33.3986 11.3155 34.0237 10.6904C34.6488 10.0652 35 9.21739 35 8.33333C35 7.44928 34.6488 6.60143 34.0237 5.97631C33.3986 5.35119 32.5507 5 31.6667 5C30.7826 5 29.9348 5.35119 29.3096 5.97631C28.6845 6.60143 28.3333 7.44928 28.3333 8.33333C28.3333 9.21739 28.6845 10.0652 29.3096 10.6904C29.9348 11.3155 30.7826 11.6667 31.6667 11.6667Z" stroke="#DFCDC0" stroke-width="3" stroke-linecap="round" stroke-linejoin="round"/>
<path d="M18.3333 31.6666H27.5C29.0471 31.6666 30.5308 31.052 31.6248 29.958C32.7188 28.8641 33.3333 27.3803 33.3333 25.8333C33.3333 24.2862 32.7188 22.8024 31.6248 21.7085C30.5308 20.6145 29.0471 19.9999 27.5 19.9999H14.1667C12.6196 19.9999 11.1358 19.3853 10.0419 18.2914C8.94792 17.1974 8.33333 15.7137 8.33333 14.1666C8.33333 12.6195 8.94792 11.1358 10.0419 10.0418C11.1358 8.94783 12.6196 8.33325 14.1667 8.33325H21.6667" stroke="#DFCDC0" stroke-width="3" stroke-linecap="round" stroke-linejoin="round"/>
</svg>
