<svg width="40" height="40" viewBox="0 0 40 40" fill="none" xmlns="http://www.w3.org/2000/svg">
<path d="M10 6.66675H26.6667L33.3333 13.3334V30.0001C33.3333 30.8841 32.9821 31.732 32.357 32.3571C31.7319 32.9822 30.8841 33.3334 30 33.3334H10C9.11594 33.3334 8.2681 32.9822 7.64298 32.3571C7.01786 31.732 6.66667 30.8841 6.66667 30.0001V10.0001C6.66667 9.11603 7.01786 8.26818 7.64298 7.64306C8.2681 7.01794 9.11594 6.66675 10 6.66675Z" stroke="#DFCDC0" stroke-width="3" stroke-linecap="round" stroke-linejoin="round"/>
<path d="M16.6667 23.3333C16.6667 24.2174 17.0179 25.0652 17.643 25.6904C18.2681 26.3155 19.1159 26.6667 20 26.6667C20.8841 26.6667 21.7319 26.3155 22.357 25.6904C22.9821 25.0652 23.3333 24.2174 23.3333 23.3333C23.3333 22.4493 22.9821 21.6014 22.357 20.9763C21.7319 20.3512 20.8841 20 20 20C19.1159 20 18.2681 20.3512 17.643 20.9763C17.0179 21.6014 16.6667 22.4493 16.6667 23.3333Z" stroke="#DFCDC0" stroke-width="3" stroke-linecap="round" stroke-linejoin="round"/>
<path d="M23.3333 6.66675V13.3334H13.3333V6.66675" stroke="#DFCDC0" stroke-width="3" stroke-linecap="round" stroke-linejoin="round"/>
</svg>
