<svg width="40" height="40" viewBox="0 0 40 40" fill="none" xmlns="http://www.w3.org/2000/svg">
<path d="M10 35L35 10L30 5L5 30L10 35Z" stroke="#DFCDC0" stroke-width="3" stroke-linecap="round" stroke-linejoin="round"/>
<path d="M25 10L30 15" stroke="#DFCDC0" stroke-width="3" stroke-linecap="round" stroke-linejoin="round"/>
<path d="M15 5C15 5.88405 15.3512 6.7319 15.9763 7.35702C16.6014 7.98214 17.4493 8.33333 18.3333 8.33333C17.4493 8.33333 16.6014 8.68452 15.9763 9.30964C15.3512 9.93477 15 10.7826 15 11.6667C15 10.7826 14.6488 9.93477 14.0237 9.30964C13.3986 8.68452 12.5507 8.33333 11.6667 8.33333C12.5507 8.33333 13.3986 7.98214 14.0237 7.35702C14.6488 6.7319 15 5.88405 15 5Z" stroke="#DFCDC0" stroke-width="3" stroke-linecap="round" stroke-linejoin="round"/>
<path d="M31.6667 21.6667C31.6667 22.5508 32.0179 23.3986 32.643 24.0238C33.2681 24.6489 34.1159 25.0001 35 25.0001C34.1159 25.0001 33.2681 25.3513 32.643 25.9764C32.0179 26.6015 31.6667 27.4494 31.6667 28.3334C31.6667 27.4494 31.3155 26.6015 30.6904 25.9764C30.0652 25.3513 29.2174 25.0001 28.3333 25.0001C29.2174 25.0001 30.0652 24.6489 30.6904 24.0238C31.3155 23.3986 31.6667 22.5508 31.6667 21.6667Z" stroke="#DFCDC0" stroke-width="3" stroke-linecap="round" stroke-linejoin="round"/>
</svg>
